<svg height="512pt" viewBox="-41 0 512 512" width="512pt" xmlns="http://www.w3.org/2000/svg"><path d="m234.453125 151.4375c4.335937-9.339844 2.894531-20.039062-3.761719-27.917969l-99.21875-117.480469c-3.242187-3.839843-7.980468-6.039062-13.011718-6.039062-5.027344 0-9.769532 2.199219-13.007813 6.039062l-99.21875 117.480469c-6.65625 7.882813-8.101563 18.582031-3.761719 27.921875 4.382813 9.4375 13.609375 15.304688 24.082032 15.304688h19.503906l13.941406 111.429687c3.640625 29.085938 28.773438 51.019531 58.460938 51.019531s54.820312-21.933593 58.457031-51.019531l13.945312-111.429687h19.503907c10.472656 0 19.703124-5.867188 24.085937-15.308594zm-55.054687-14.691406c-8.558594 0-15.8125 6.390625-16.875 14.871094l-15.371094 122.832031c-1.765625 14.109375-14.101563 24.746093-28.691406 24.746093-14.589844 0-26.925782-10.636718-28.691407-24.746093l-15.367187-122.820313c-1.054688-8.484375-8.3125-14.882812-16.878906-14.882812h-23.191407l84.132813-99.613282 84.128906 99.613282zm0 0"/><path d="m427.5625 360.558594c-4.386719-9.4375-13.613281-15.304688-24.085938-15.304688h-19.5l-13.945312-111.429687c-3.640625-29.085938-28.773438-51.019531-58.460938-51.019531s-54.816406 21.933593-58.457031 51.019531l-13.945312 111.429687h-19.503907c-10.472656 0-19.699218 5.867188-24.085937 15.308594-4.335937 9.339844-2.894531 20.039062 3.765625 27.917969l99.226562 117.488281c3.238282 3.832031 7.976563 6.03125 13 6.03125 5.027344 0 9.765626-2.199219 13.003907-6.03125l99.226562-117.488281c6.65625-7.882813 8.097657-18.582031 3.761719-27.921875zm-115.992188 114.308594-84.128906-99.613282h23.191406c8.558594 0 15.8125-6.390625 16.875-14.871094l15.371094-122.832031c1.765625-14.109375 14.101563-24.746093 28.691406-24.746093 14.59375 0 26.925782 10.636718 28.691407 24.746093l15.367187 122.820313c1.058594 8.484375 8.3125 14.882812 16.878906 14.882812h23.191407zm0 0"/></svg>